# xmcd
# 
# Track frame offsets:
#   150
#   15810
#   28735
#   46355
#   60995
#   78040
#   94895
#   111610
#   127795
#   144525
#   164130
#   182610
#   197285
#   218575
#   235460
# 
# Disc length: 3332 seconds
# 
# Revision: 2
# Processed by: cddbd v1.5.2PL0 Copyright (c) Steve Scherf et al.
# Submitted via: Synapstar 1.0 
# 
DISCID=bf0d020f
DTITLE=Various Artist - MM6163
DYEAR=1900
DGENRE=Country
TTITLE0=Trevino, Rick - Learning As You Go
TTITLE1=Messina, Jo Dee - You're Not In Kansas Anymore
TTITLE2=Keith, Toby - Woman's Touch, A
TTITLE3=Travis, Randy - Are We In Trouble Now
TTITLE4=Yearwood, Trisha - Believe Me Baby I Lied
TTITLE5=Raye, Collin - Love Remains
TTITLE6=Herndon, Ty - Living In A Moment
TTITLE7=Chesney, Kenny - Me And You
TTITLE8=Lawrence, Tracy - Stars Over Texas
TTITLE9=Azar, Steve - I Never Stopped Lovin' You
TTITLE10=McCoy, Neal - Hillbilly Rap
TTITLE11=Wright, Michelle - Nobody's Girl
TTITLE12=Gill, Vince - Worlds Apart
TTITLE13=Hill, Faith - You Can't Lose Me
TTITLE14=Alabama - Maker Said Take Her, The
EXTD=As Listed In KJ Pro MediaType: Karaoke CD+G Producer: Music Maestro
EXTT0=
EXTT1=
EXTT2=
EXTT3=
EXTT4=
EXTT5=
EXTT6=
EXTT7=
EXTT8=
EXTT9=
EXTT10=
EXTT11=
EXTT12=
EXTT13=
EXTT14=
PLAYORDER=
